<?xml version="1.0" ?><svg data-name="Layer 1" id="Layer_1" viewBox="0 0 64 64" xmlns="http://www.w3.org/2000/svg"><title/><desc/><path d="M50.06,9h-1v5a3,3,0,0,1-6,0V9h-8v5a3,3,0,1,1-6,0V9h-8v5a3,3,0,0,1-6,0V9h-1a8,8,0,0,0-8,8v7h52V17A8,8,0,0,0,50.06,9Z" style="fill:#a8dba8"/><rect height="14" rx="3" ry="3" style="fill:#79bd9a" width="6" x="15.06" y="3.02"/><rect height="14" rx="3" ry="3" style="fill:#79bd9a" width="6" x="43.06" y="3.02"/><rect height="14" rx="3" ry="3" style="fill:#79bd9a" width="6" x="29.06" y="3.02"/><path d="M11.06,30V24h-5V53a8,8,0,0,0,8,8h36a8,8,0,0,0,7.41-5H37.06A26,26,0,0,1,11.06,30Z" style="fill:#cff09e"/><path d="M50.06,33h0a2,2,0,0,0-2-2h-8a4,4,0,0,0-4,4h0v6h0a4,4,0,0,0,4,4h6v6h-8a2,2,0,0,0-2,2h0a2,2,0,0,0,2,2h8a4,4,0,0,0,4-4h0V45h0a4,4,0,0,0-4-4h-6V35h8A2,2,0,0,0,50.06,33Z" style="fill:#a8dba8"/><path d="M14.06,33h0a2,2,0,0,1,2-2h8a4,4,0,0,1,4,4h0v6h0a4,4,0,0,1-4,4h-6v6h8a2,2,0,0,1,2,2h0a2,2,0,0,1-2,2h-8a4,4,0,0,1-4-4h0V45h0a4,4,0,0,1,4-4h6V35h-8A2,2,0,0,1,14.06,33Z" style="fill:#a8dba8"/><path d="M38.06,50a3,3,0,0,0,0,6h8a5,5,0,0,0,5-5V45a5,5,0,0,0-5-5h-5V36h7a3,3,0,0,0,0-6h-8a5,5,0,0,0-5,5v6a5,5,0,0,0,5,5h5v4Zm8-6h-6a3,3,0,0,1-3-3V35a3,3,0,0,1,3-3h8a1,1,0,0,1,0,2h-8a1,1,0,0,0-1,1v6a1,1,0,0,0,1,1h6a3,3,0,0,1,3,3v6a3,3,0,0,1-3,3h-8a1,1,0,0,1,0-2h8a1,1,0,0,0,1-1V45A1,1,0,0,0,46.06,44Z" style="fill:#3b8686"/><path d="M18.06,56h8a3,3,0,0,0,0-6h-7V46h5a5,5,0,0,0,5-5V35a5,5,0,0,0-5-5h-8a3,3,0,1,0,0,6h7v4h-5a5,5,0,0,0-5,5v6A5,5,0,0,0,18.06,56Zm-3-11a3,3,0,0,1,3-3h6a1,1,0,0,0,1-1V35a1,1,0,0,0-1-1h-8a1,1,0,1,1,0-2h8a3,3,0,0,1,3,3v6a3,3,0,0,1-3,3h-6a1,1,0,0,0-1,1v6a1,1,0,0,0,1,1h8a1,1,0,0,1,0,2h-8a3,3,0,0,1-3-3Z" style="fill:#3b8686"/><path d="M50.06,8V6a4,4,0,0,0-8,0V8h-6V6a4,4,0,1,0-8,0V8h-6V6a4,4,0,0,0-8,0V8a9,9,0,0,0-9,9V53a9,9,0,0,0,9,9h36a9,9,0,0,0,9-9V17A9,9,0,0,0,50.06,8Zm-6-2a2,2,0,1,1,4,0v8a2,2,0,0,1-4,0Zm-14,0a2,2,0,0,1,4,0v8a2,2,0,1,1-4,0Zm-14,0a2,2,0,0,1,4,0v8a2,2,0,0,1-4,0Zm-2,4v4a4,4,0,0,0,8,0V10h6v4a4,4,0,1,0,8,0V10h6v4a4,4,0,0,0,8,0V10a7,7,0,0,1,7,7v6h-50V17A7,7,0,0,1,14.06,10Zm43,43a7,7,0,0,1-7,7h-36a7,7,0,0,1-7-7V25h50Z" style="fill:#3b8686"/></svg>